<?xml version="1.0" standalone="no"?>
<!DOCTYPE svg PUBLIC "-//W3C//DTD SVG 20010904//EN"
 "http://www.w3.org/TR/2001/REC-SVG-20010904/DTD/svg10.dtd">
<svg version="1.0" xmlns="http://www.w3.org/2000/svg"
 width="1280.000000pt" height="1152.000000pt" viewBox="0 0 1280.000000 1152.000000"
 preserveAspectRatio="xMidYMid meet">
<metadata>
Created by potrace 1.15, written by Peter Selinger 2001-2017
</metadata>
<g transform="translate(0.000000,1152.000000) scale(0.100000,-0.100000)"
fill="#000000" stroke="none">
<path d="M6630 11495 c-91 -29 -177 -88 -208 -144 -49 -87 -82 -261 -82 -433
0 -127 3 -159 32 -293 33 -159 127 -327 242 -433 64 -59 101 -63 172 -21 61
37 95 75 143 160 46 83 68 156 87 290 16 122 15 198 -7 344 -6 39 -14 106 -18
150 -12 126 -86 278 -163 337 -79 60 -117 68 -198 43z"/>
<path d="M5268 11405 c-125 -26 -200 -86 -233 -186 -16 -47 -17 -61 -6 -113
16 -79 38 -119 106 -199 109 -127 228 -175 360 -146 100 23 135 53 160 136 18
61 20 229 4 270 -33 80 -46 102 -90 148 -84 89 -173 116 -301 90z"/>
<path d="M5641 10349 c-24 -5 -53 -15 -65 -23 -43 -29 -137 -127 -148 -154
-19 -48 -77 -265 -104 -387 -23 -107 -58 -179 -119 -242 -56 -58 -91 -71 -137
-52 -72 30 -187 117 -302 230 -137 134 -148 142 -295 223 -111 61 -230 104
-349 126 -59 11 -88 11 -154 1 -143 -22 -224 -75 -279 -182 -69 -136 -89 -399
-41 -544 11 -33 48 -120 81 -192 34 -73 69 -161 77 -195 29 -113 0 -254 -56
-269 -14 -4 -88 -7 -166 -8 -131 -1 -197 5 -449 44 -423 64 -705 -86 -705
-375 0 -51 6 -78 29 -125 37 -78 73 -113 203 -198 108 -70 144 -108 241 -250
52 -79 29 -150 -59 -177 -43 -13 -156 -28 -274 -35 -41 -3 -149 -10 -240 -15
-142 -10 -248 -22 -485 -60 -268 -42 -585 -146 -727 -239 -99 -64 -191 -164
-208 -224 -10 -39 -10 -57 1 -109 20 -89 83 -155 221 -230 117 -64 220 -100
463 -163 287 -74 309 -80 400 -118 202 -85 319 -167 331 -233 8 -45 -1 -54
-91 -83 -38 -12 -79 -26 -90 -31 -11 -5 -49 -19 -85 -31 -346 -117 -605 -263
-786 -444 -193 -192 -176 -386 41 -469 53 -20 284 -35 372 -23 57 7 205 35
353 67 19 4 104 24 189 44 350 85 569 105 692 65 93 -30 118 -46 126 -77 15
-61 -64 -261 -165 -417 -238 -368 -302 -578 -246 -802 46 -186 147 -289 314
-324 75 -16 256 -7 295 15 17 9 44 16 61 16 18 0 55 16 95 42 114 75 462 250
544 274 75 22 285 31 326 13 40 -16 97 -82 124 -143 41 -93 48 -154 47 -441
-2 -447 29 -650 131 -875 14 -30 34 -76 46 -102 69 -153 252 -365 374 -433
155 -85 278 -106 369 -60 162 81 294 280 357 535 6 25 22 115 36 200 14 85 29
178 34 205 5 28 15 82 21 120 47 282 167 465 307 465 35 0 87 -27 119 -62 48
-50 133 -192 176 -293 142 -329 333 -576 567 -732 107 -72 191 -103 279 -103
232 0 462 286 462 573 0 89 -14 163 -56 304 -40 131 -63 185 -165 393 -129
262 -154 320 -199 465 -46 152 -37 379 17 427 42 37 125 30 230 -17 29 -14 59
-25 65 -25 6 0 63 -25 125 -55 63 -30 116 -55 118 -55 2 0 32 -18 67 -40 93
-61 292 -155 448 -213 151 -56 287 -74 398 -51 29 6 108 78 136 124 37 61 48
110 49 214 0 92 -3 107 -30 166 -41 88 -120 188 -228 290 -260 243 -507 505
-571 601 -94 146 -104 223 -44 345 30 61 32 63 108 95 222 93 544 154 1017
194 144 12 283 27 375 41 52 8 122 19 155 24 98 15 315 77 403 115 156 69 222
108 270 160 65 71 92 141 92 240 0 122 -39 220 -137 342 -36 45 -249 228 -310
266 -51 31 -149 90 -198 117 -68 38 -365 151 -475 180 -232 62 -287 78 -340
98 -30 11 -94 34 -142 51 -206 74 -368 177 -368 235 0 36 74 114 167 177 78
53 254 143 348 178 33 13 105 41 160 63 355 144 445 195 583 331 84 82 112
143 112 240 0 41 -6 85 -12 98 -136 258 -500 370 -823 253 -83 -30 -320 -155
-498 -262 -218 -132 -283 -165 -424 -218 -128 -49 -172 -57 -306 -57 -121 0
-129 1 -154 24 -34 32 -73 115 -73 158 0 75 25 173 82 316 100 249 111 293
112 425 1 108 -1 118 -26 160 -64 107 -191 194 -283 194 -103 -1 -218 -80
-296 -204 -19 -30 -66 -112 -103 -182 -53 -99 -82 -140 -130 -186 -69 -67
-149 -103 -227 -104 -99 0 -229 86 -250 167 -39 148 -157 415 -232 524 -115
168 -345 329 -512 360 -32 6 -59 11 -59 10 -1 -1 -21 -5 -45 -10z"/>
<path d="M8790 10076 c-41 -12 -91 -30 -111 -38 -186 -81 -504 -409 -564 -583
-10 -27 -20 -84 -22 -125 l-5 -75 41 -52 c22 -29 61 -64 87 -79 41 -24 52 -26
111 -21 136 13 302 119 458 294 211 233 265 334 265 488 0 102 -33 164 -105
196 -51 23 -63 23 -155 -5z"/>
<path d="M2253 10064 c-37 -16 -41 -39 -22 -122 42 -179 202 -356 512 -567
280 -191 340 -224 487 -271 59 -18 163 -18 200 1 37 19 54 71 47 141 -6 60
-45 126 -160 276 -109 140 -313 311 -482 403 -100 55 -263 119 -350 140 -81
18 -189 18 -232 -1z"/>
<path d="M2276 9309 c-68 -10 -154 -47 -183 -78 -29 -31 -34 -69 -19 -136 11
-46 23 -67 62 -107 71 -72 117 -90 239 -90 81 -1 112 3 160 22 75 28 84 36
106 85 24 57 32 129 19 170 -15 47 -83 103 -145 120 -69 19 -168 25 -239 14z"/>
<path d="M10075 7999 c-27 -5 -81 -14 -120 -20 -156 -25 -428 -111 -454 -143
-5 -6 -12 -26 -16 -45 -7 -31 -4 -37 54 -92 91 -86 199 -133 390 -170 58 -11
131 -27 161 -36 30 -8 69 -18 85 -23 50 -14 195 -60 285 -92 137 -48 400 -125
511 -150 87 -19 134 -22 289 -23 214 0 274 10 375 63 82 44 105 76 112 161 5
52 2 66 -20 103 -51 88 -123 142 -304 229 -279 135 -514 203 -829 239 -107 12
-447 12 -519 -1z"/>
<path d="M11470 6871 c-60 -9 -103 -33 -137 -78 -23 -30 -28 -48 -32 -110 -8
-160 72 -253 269 -318 67 -22 221 -25 271 -5 93 37 168 123 184 211 7 40 -13
100 -47 136 -22 23 -233 131 -308 158 -43 15 -120 18 -200 6z"/>
<path d="M490 6559 c-192 -15 -337 -66 -438 -155 -44 -39 -47 -44 -46 -90 1
-54 42 -146 90 -204 51 -60 150 -98 369 -140 128 -24 269 -30 370 -16 125 19
163 30 246 72 78 39 172 130 195 189 14 39 14 44 -6 98 -27 71 -61 113 -103
126 -18 5 -70 23 -117 40 -47 16 -119 37 -160 45 -76 16 -289 47 -299 45 -3
-1 -49 -5 -101 -10z"/>
<path d="M12176 5735 c-96 -34 -155 -120 -164 -237 -7 -96 13 -142 94 -217 35
-34 77 -67 92 -75 91 -45 286 -55 386 -18 139 51 206 114 206 191 0 72 -21
121 -76 180 -60 65 -127 107 -245 156 -74 30 -94 35 -169 34 -47 0 -102 -6
-124 -14z"/>
<path d="M9450 5650 c-14 -4 -40 -8 -58 -9 -18 -1 -61 -14 -97 -30 -57 -26
-65 -33 -76 -69 -20 -69 -6 -106 61 -160 83 -67 107 -83 180 -120 36 -19 74
-42 85 -51 25 -23 133 -85 250 -144 90 -46 298 -130 450 -181 44 -15 89 -31
100 -36 105 -45 422 -127 590 -152 130 -19 367 -16 428 5 79 28 103 44 151
100 50 58 68 96 91 184 15 56 15 59 -10 110 -40 81 -138 164 -270 229 -60 30
-117 54 -126 54 -9 0 -38 9 -65 19 -27 10 -121 35 -209 56 -88 20 -178 40
-200 45 -116 27 -238 49 -305 55 -41 3 -111 15 -155 25 -243 58 -724 99 -815
70z"/>
<path d="M8986 5246 c-103 -38 -174 -172 -146 -275 15 -58 81 -126 156 -162
56 -26 72 -30 114 -24 121 17 185 84 176 187 -4 63 -41 153 -82 201 -62 74
-143 101 -218 73z"/>
<path d="M605 5011 c-123 -21 -270 -112 -301 -188 -40 -95 18 -238 122 -299
50 -30 133 -54 184 -54 47 0 124 24 174 55 62 37 135 111 156 158 23 50 26
143 6 190 -44 102 -191 162 -341 138z"/>
<path d="M1845 4789 c-258 -47 -556 -146 -803 -266 -320 -155 -528 -305 -604
-433 -49 -82 -67 -178 -44 -232 20 -47 67 -101 112 -129 78 -48 322 -55 479
-13 132 34 136 36 231 79 30 14 57 25 60 25 6 0 231 112 324 162 72 39 299
185 388 251 98 72 162 129 214 192 l51 60 -6 88 c-6 96 -26 149 -67 179 -30
21 -165 48 -235 47 -27 -1 -72 -5 -100 -10z"/>
<path d="M9926 4447 c-63 -23 -147 -91 -171 -138 -8 -15 -18 -58 -21 -96 -6
-63 -4 -75 22 -127 37 -76 107 -146 224 -222 129 -84 211 -107 365 -102 95 3
118 7 170 31 109 51 144 105 145 221 0 65 -2 71 -44 130 -86 119 -210 225
-331 281 -104 48 -262 58 -359 22z"/>
<path d="M8335 3508 c-100 -35 -118 -55 -146 -156 -25 -87 -24 -207 0 -347 31
-171 37 -196 65 -258 14 -32 26 -67 26 -77 0 -11 4 -28 9 -38 4 -9 14 -33 21
-52 33 -95 47 -126 116 -270 119 -246 184 -369 235 -450 27 -41 78 -122 114
-179 99 -156 216 -303 339 -426 188 -187 285 -231 447 -207 123 19 143 28 197
87 98 107 130 228 102 381 -39 212 -185 548 -350 804 -146 227 -463 664 -549
755 -31 33 -87 97 -125 143 -128 152 -245 241 -368 282 -67 22 -88 23 -133 8z"/>
<path d="M2538 3001 c-37 -15 -79 -37 -95 -47 -41 -27 -123 -120 -163 -183
-32 -51 -35 -62 -38 -151 -5 -107 4 -136 57 -186 53 -50 172 -67 267 -39 62
18 177 97 231 159 48 54 89 137 104 208 30 136 -75 256 -230 264 -55 3 -77 -1
-133 -25z"/>
<path d="M6150 2298 c-110 -31 -219 -195 -303 -458 -133 -416 -156 -550 -157
-920 0 -268 30 -432 104 -556 19 -34 40 -73 45 -87 6 -15 38 -61 73 -103 53
-66 72 -82 133 -109 178 -82 335 -65 453 49 48 45 64 72 86 138 44 136 56 262
57 596 0 393 -20 606 -81 858 -36 147 -52 191 -127 364 -67 156 -112 212 -179
224 -21 4 -46 9 -54 11 -8 1 -31 -1 -50 -7z"/>
<path d="M4139 2211 c-58 -18 -115 -65 -142 -118 -39 -74 -30 -208 20 -308 39
-79 64 -94 153 -94 96 0 171 33 214 96 42 60 48 172 16 261 -44 121 -160 193
-261 163z"/>
<path d="M8060 1836 c-56 -28 -121 -106 -151 -183 -20 -49 -23 -75 -22 -170 1
-124 5 -135 100 -257 71 -91 224 -166 339 -166 63 0 66 1 114 46 55 52 80 109
80 188 0 28 4 68 9 89 11 48 4 76 -60 217 -35 78 -114 173 -175 210 -40 25
-119 50 -159 50 -16 0 -50 -11 -75 -24z"/>
<path d="M5000 1717 c-42 -20 -100 -69 -115 -96 -50 -98 -70 -256 -45 -356 27
-105 43 -144 68 -168 37 -35 141 -87 172 -87 76 2 175 73 215 155 56 113 66
203 39 314 -23 90 -72 161 -146 211 -52 34 -68 40 -112 39 -28 0 -62 -6 -76
-12z"/>
<path d="M4315 984 c-23 -8 -57 -27 -76 -44 -65 -53 -85 -186 -48 -325 20 -73
106 -135 189 -135 86 0 209 91 231 173 15 54 6 171 -17 217 -21 43 -70 97
-106 116 -34 18 -121 17 -173 -2z"/>
</g>
</svg>
